<svg xmlns="http://www.w3.org/2000/svg" viewBox="0 0 128 128">
  <rect width="128" height="128" rx="28" fill="#F02814"/>
  <g transform="translate(-50, -85) scale(1.15)" fill="#FFFFFF">
    <circle cx="106" cy="118" r="14"/>
    <path d="M96 137 C96 134 102 133 108 133 C114 133 120 135 120 139 L120 174 C116 179 108 182 101 178 L96 174 Z"/>
    <path d="M92 144 C88 144 86 148 86 156 C86 166 89 172 93 173 C95 173 96 170 96 166 L96 148 C96 145 94 144 92 144 Z"/>
    <path d="M97 140 L70 113 C67 110 69 105 74 107 L102 135 Z"/>
    <path d="M116 140 L141 113 C144 110 148 114 145 118 L119 143 Z"/>
    <path d="M98 174 C94 178 88 185 82 192 C74 201 69 207 68 212 C67 217 72 219 76 215 C82 209 89 199 97 186 Z"/>
    <path d="M107 175 C109 184 113 194 115 204 C117 212 113 220 106 226 C100 231 93 234 91 230 C89 226 95 218 99 210 C103 202 103 192 102 181 Z"/>
    <circle cx="166" cy="138" r="12"/>
    <path d="M157 155 C157 152 163 151 168 151 C173 151 178 153 178 156 L175 186 C172 190 165 192 159 189 L156 186 Z"/>
    <path d="M153 160 C150 160 148 163 148 170 C148 178 151 183 155 184 C156 184 157 181 157 178 L157 164 Z"/>
    <path d="M158 157 L133 148 C129 146 128 141 133 141 C137 141 146 144 160 152 Z"/>
    <path d="M176 157 L200 151 C205 150 206 155 201 158 L177 165 Z"/>
    <path d="M159 186 C155 192 151 199 147 205 C143 211 147 216 152 214 C156 212 161 204 165 194 Z"/>
    <path d="M172 186 C175 194 177 201 180 208 C182 213 177 217 172 215 C168 212 167 203 167 194 Z"/>
  </g>
</svg>